<?xml version="1.0" encoding="UTF-8" standalone="no"?>
  <svg version="1.1"
  baseProfile="full"
  width="1664"
  height="1110"
  xmlns="http://www.w3.org/2000/svg"
  xmlns:xlink="http://www.w3.org/1999/xlink"
  xmlns:ev="http://www.w3.org/2001/xml-events">
  <style>.markmap{font:300 16px/20px sans-serif}.markmap-link{fill:none}.markmap-node&gt;circle{cursor:pointer}.markmap-foreign{display:inline-block}.markmap-foreign a{color:#0097e6}.markmap-foreign a:hover{color:#00a8ff}.markmap-foreign code{background-color:#f0f0f0;border-radius:2px;color:#555;font-size:calc(1em - 2px)}.markmap-foreign :not(pre)&gt;code{padding:.2em .4em}.markmap-foreign del{text-decoration:line-through}.markmap-foreign em{font-style:italic}.markmap-foreign strong{font-weight:bolder}.markmap-foreign mark{background:#ffeaa7}.markmap-foreign pre,.markmap-foreign pre[class*=language-]{margin:0;padding:.2em .4em}</style><g transform="translate(145.71569731175077,511.78841942314915) scale(0.6429418340469074)"><path class="markmap-link" data-depth="1" data-path="1.2" d="M267,10C307,10,307,-602.5,347,-602.5" stroke="rgb(255, 127, 14)" stroke-width="2"></path><path class="markmap-link" data-depth="1" data-path="1.16" d="M267,10C307,10,307,43.75,347,43.75" stroke="rgb(140, 86, 75)" stroke-width="2"></path><path class="markmap-link" data-depth="1" data-path="1.48" d="M267,10C307,10,307,622.5,347,622.5" stroke="rgb(127, 127, 127)" stroke-width="2"></path><path class="markmap-link" data-depth="2" data-path="1.2.3" d="M674,-602.5C714,-602.5,714,-703.75,754,-703.75" stroke="rgb(44, 160, 44)" stroke-width="1.5"></path><path class="markmap-link" data-depth="2" data-path="1.2.9" d="M674,-602.5C714,-602.5,714,-501.25,754,-501.25" stroke="rgb(188, 189, 34)" stroke-width="1.5"></path><path class="markmap-link" data-depth="2" data-path="1.16.17" d="M531,43.75C571,43.75,571,-238.75,611,-238.75" stroke="rgb(227, 119, 194)" stroke-width="1.5"></path><path class="markmap-link" data-depth="2" data-path="1.16.26" d="M531,43.75C571,43.75,571,36.25,611,36.25" stroke="rgb(140, 86, 75)" stroke-width="1.5"></path><path class="markmap-link" data-depth="2" data-path="1.16.44" d="M531,43.75C571,43.75,571,326.25,611,326.25" stroke="rgb(214, 39, 40)" stroke-width="1.5"></path><path class="markmap-link" data-depth="2" data-path="1.48.49" d="M731,622.5C771,622.5,771,516.25,811,516.25" stroke="rgb(188, 189, 34)" stroke-width="1.5"></path><path class="markmap-link" data-depth="2" data-path="1.48.57" d="M731,622.5C771,622.5,771,728.75,811,728.75" stroke="rgb(227, 119, 194)" stroke-width="1.5"></path><path class="markmap-link" data-depth="3" data-path="1.2.3.4" d="M1025,-703.75C1065,-703.75,1065,-763.75,1105,-763.75" stroke="rgb(214, 39, 40)" stroke-width="1.5"></path><path class="markmap-link" data-depth="3" data-path="1.2.3.5" d="M1025,-703.75C1065,-703.75,1065,-738.75,1105,-738.75" stroke="rgb(148, 103, 189)" stroke-width="1.5"></path><path class="markmap-link" data-depth="3" data-path="1.2.3.6" d="M1025,-703.75C1065,-703.75,1065,-693.75,1105,-693.75" stroke="rgb(140, 86, 75)" stroke-width="1.5"></path><path class="markmap-link" data-depth="3" data-path="1.2.3.7" d="M1025,-703.75C1065,-703.75,1065,-668.75,1105,-668.75" stroke="rgb(227, 119, 194)" stroke-width="1.5"></path><path class="markmap-link" data-depth="3" data-path="1.2.3.8" d="M1025,-703.75C1065,-703.75,1065,-643.75,1105,-643.75" stroke="rgb(127, 127, 127)" stroke-width="1.5"></path><path class="markmap-link" data-depth="3" data-path="1.2.9.10" d="M1083,-501.25C1123,-501.25,1123,-613.75,1163,-613.75" stroke="rgb(23, 190, 207)" stroke-width="1.5"></path><path class="markmap-link" data-depth="3" data-path="1.2.9.11" d="M1083,-501.25C1123,-501.25,1123,-588.75,1163,-588.75" stroke="rgb(31, 119, 180)" stroke-width="1.5"></path><path class="markmap-link" data-depth="3" data-path="1.2.9.12" d="M1083,-501.25C1123,-501.25,1123,-563.75,1163,-563.75" stroke="rgb(255, 127, 14)" stroke-width="1.5"></path><path class="markmap-link" data-depth="3" data-path="1.2.9.13" d="M1083,-501.25C1123,-501.25,1123,-498.75,1163,-498.75" stroke="rgb(44, 160, 44)" stroke-width="1.5"></path><path class="markmap-link" data-depth="3" data-path="1.2.9.14" d="M1083,-501.25C1123,-501.25,1123,-453.75,1163,-453.75" stroke="rgb(214, 39, 40)" stroke-width="1.5"></path><path class="markmap-link" data-depth="3" data-path="1.2.9.15" d="M1083,-501.25C1123,-501.25,1123,-388.75,1163,-388.75" stroke="rgb(148, 103, 189)" stroke-width="1.5"></path><path class="markmap-link" data-depth="3" data-path="1.16.17.18" d="M690,-238.75C730,-238.75,730,-333.75,770,-333.75" stroke="rgb(127, 127, 127)" stroke-width="1.5"></path><path class="markmap-link" data-depth="3" data-path="1.16.17.22" d="M690,-238.75C730,-238.75,730,-258.75,770,-258.75" stroke="rgb(255, 127, 14)" stroke-width="1.5"></path><path class="markmap-link" data-depth="3" data-path="1.16.17.23" d="M690,-238.75C730,-238.75,730,-233.75,770,-233.75" stroke="rgb(44, 160, 44)" stroke-width="1.5"></path><path class="markmap-link" data-depth="3" data-path="1.16.17.24" d="M690,-238.75C730,-238.75,730,-188.75,770,-188.75" stroke="rgb(214, 39, 40)" stroke-width="1.5"></path><path class="markmap-link" data-depth="3" data-path="1.16.17.25" d="M690,-238.75C730,-238.75,730,-143.75,770,-143.75" stroke="rgb(148, 103, 189)" stroke-width="1.5"></path><path class="markmap-link" data-depth="3" data-path="1.16.26.27" d="M736,36.25C776,36.25,776,-113.75,816,-113.75" stroke="rgb(227, 119, 194)" stroke-width="1.5"></path><path class="markmap-link" data-depth="3" data-path="1.16.26.28" d="M736,36.25C776,36.25,776,-88.75,816,-88.75" stroke="rgb(127, 127, 127)" stroke-width="1.5"></path><path class="markmap-link" data-depth="3" data-path="1.16.26.29" d="M736,36.25C776,36.25,776,-63.75,816,-63.75" stroke="rgb(188, 189, 34)" stroke-width="1.5"></path><path class="markmap-link" data-depth="3" data-path="1.16.26.30" d="M736,36.25C776,36.25,776,-38.75,816,-38.75" stroke="rgb(23, 190, 207)" stroke-width="1.5"></path><path class="markmap-link" data-depth="3" data-path="1.16.26.31" d="M736,36.25C776,36.25,776,-13.75,816,-13.75" stroke="rgb(31, 119, 180)" stroke-width="1.5"></path><path class="markmap-link" data-depth="3" data-path="1.16.26.32" d="M736,36.25C776,36.25,776,11.25,816,11.25" stroke="rgb(255, 127, 14)" stroke-width="1.5"></path><path class="markmap-link" data-depth="3" data-path="1.16.26.33" d="M736,36.25C776,36.25,776,56.25,816,56.25" stroke="rgb(44, 160, 44)" stroke-width="1.5"></path><path class="markmap-link" data-depth="3" data-path="1.16.26.34" d="M736,36.25C776,36.25,776,81.25,816,81.25" stroke="rgb(214, 39, 40)" stroke-width="1.5"></path><path class="markmap-link" data-depth="3" data-path="1.16.26.35" d="M736,36.25C776,36.25,776,133.75,816,133.75" stroke="rgb(148, 103, 189)" stroke-width="1.5"></path><path class="markmap-link" data-depth="3" data-path="1.16.26.36" d="M736,36.25C776,36.25,776,186.25,816,186.25" stroke="rgb(140, 86, 75)" stroke-width="1.5"></path><path class="markmap-link" data-depth="3" data-path="1.16.44.45" d="M798,326.25C838,326.25,838,311.25,878,311.25" stroke="rgb(148, 103, 189)" stroke-width="1.5"></path><path class="markmap-link" data-depth="3" data-path="1.16.44.46" d="M798,326.25C838,326.25,838,336.25,878,336.25" stroke="rgb(140, 86, 75)" stroke-width="1.5"></path><path class="markmap-link" data-depth="3" data-path="1.16.44.47" d="M798,326.25C838,326.25,838,361.25,878,361.25" stroke="rgb(227, 119, 194)" stroke-width="1.5"></path><path class="markmap-link" data-depth="3" data-path="1.48.49.50" d="M1072,516.25C1112,516.25,1112,391.25,1152,391.25" stroke="rgb(23, 190, 207)" stroke-width="1.5"></path><path class="markmap-link" data-depth="3" data-path="1.48.49.51" d="M1072,516.25C1112,516.25,1112,416.25,1152,416.25" stroke="rgb(31, 119, 180)" stroke-width="1.5"></path><path class="markmap-link" data-depth="3" data-path="1.48.49.52" d="M1072,516.25C1112,516.25,1112,461.25,1152,461.25" stroke="rgb(255, 127, 14)" stroke-width="1.5"></path><path class="markmap-link" data-depth="3" data-path="1.48.49.53" d="M1072,516.25C1112,516.25,1112,526.25,1152,526.25" stroke="rgb(44, 160, 44)" stroke-width="1.5"></path><path class="markmap-link" data-depth="3" data-path="1.48.49.54" d="M1072,516.25C1112,516.25,1112,571.25,1152,571.25" stroke="rgb(214, 39, 40)" stroke-width="1.5"></path><path class="markmap-link" data-depth="3" data-path="1.48.49.55" d="M1072,516.25C1112,516.25,1112,616.25,1152,616.25" stroke="rgb(148, 103, 189)" stroke-width="1.5"></path><path class="markmap-link" data-depth="3" data-path="1.48.49.56" d="M1072,516.25C1112,516.25,1112,641.25,1152,641.25" stroke="rgb(140, 86, 75)" stroke-width="1.5"></path><path class="markmap-link" data-depth="3" data-path="1.48.57.58" d="M1134,728.75C1174,728.75,1174,691.25,1214,691.25" stroke="rgb(127, 127, 127)" stroke-width="1.5"></path><path class="markmap-link" data-depth="3" data-path="1.48.57.59" d="M1134,728.75C1174,728.75,1174,716.25,1214,716.25" stroke="rgb(188, 189, 34)" stroke-width="1.5"></path><path class="markmap-link" data-depth="3" data-path="1.48.57.60" d="M1134,728.75C1174,728.75,1174,761.25,1214,761.25" stroke="rgb(23, 190, 207)" stroke-width="1.5"></path><path class="markmap-link" data-depth="3" data-path="1.48.57.61" d="M1134,728.75C1174,728.75,1174,786.25,1214,786.25" stroke="rgb(31, 119, 180)" stroke-width="1.5"></path><path class="markmap-link" data-depth="4" data-path="1.16.17.18.19" d="M966,-333.75C1006,-333.75,1006,-358.75,1046,-358.75" stroke="rgb(188, 189, 34)" stroke-width="1.5"></path><path class="markmap-link" data-depth="4" data-path="1.16.17.18.20" d="M966,-333.75C1006,-333.75,1006,-333.75,1046,-333.75" stroke="rgb(23, 190, 207)" stroke-width="1.5"></path><path class="markmap-link" data-depth="4" data-path="1.16.17.18.21" d="M966,-333.75C1006,-333.75,1006,-308.75,1046,-308.75" stroke="rgb(31, 119, 180)" stroke-width="1.5"></path><path class="markmap-link" data-depth="4" data-path="1.16.26.36.37" d="M941,186.25C981,186.25,981,111.25,1021,111.25" stroke="rgb(227, 119, 194)" stroke-width="1.5"></path><path class="markmap-link" data-depth="4" data-path="1.16.26.36.38" d="M941,186.25C981,186.25,981,136.25,1021,136.25" stroke="rgb(127, 127, 127)" stroke-width="1.5"></path><path class="markmap-link" data-depth="4" data-path="1.16.26.36.39" d="M941,186.25C981,186.25,981,161.25,1021,161.25" stroke="rgb(188, 189, 34)" stroke-width="1.5"></path><path class="markmap-link" data-depth="4" data-path="1.16.26.36.40" d="M941,186.25C981,186.25,981,186.25,1021,186.25" stroke="rgb(23, 190, 207)" stroke-width="1.5"></path><path class="markmap-link" data-depth="4" data-path="1.16.26.36.41" d="M941,186.25C981,186.25,981,211.25,1021,211.25" stroke="rgb(31, 119, 180)" stroke-width="1.5"></path><path class="markmap-link" data-depth="4" data-path="1.16.26.36.42" d="M941,186.25C981,186.25,981,236.25,1021,236.25" stroke="rgb(255, 127, 14)" stroke-width="1.5"></path><path class="markmap-link" data-depth="4" data-path="1.16.26.36.43" d="M941,186.25C981,186.25,981,261.25,1021,261.25" stroke="rgb(44, 160, 44)" stroke-width="1.5"></path><g data-depth="4" data-path="1.16.26.36.43" transform="translate(1021, 241.25)" class="markmap-node"><line x1="-1" x2="269" y1="20" y2="20" stroke="rgb(44, 160, 44)" stroke-width="1.5"></line><foreignObject class="markmap-foreign" x="8" y="0" width="251" height="20" style="opacity: 1;"><div xmlns="http://www.w3.org/1999/xhtml"><a href="https://learn.microsoft.com/en-us/power-query/power-query-ui" target="_blank">Power Query Editor in PBI Desktop</a></div></foreignObject></g><g data-depth="4" data-path="1.16.26.36.42" transform="translate(1021, 216.25)" class="markmap-node"><line x1="-1" x2="52" y1="20" y2="20" stroke="rgb(255, 127, 14)" stroke-width="1.5"></line><foreignObject class="markmap-foreign" x="8" y="0" width="34" height="20" style="opacity: 1;"><div xmlns="http://www.w3.org/1999/xhtml"><a href="https://learn.microsoft.com/en-us/power-bi/transform-model/desktop-quickstart-learn-dax-basics" target="_blank">DAX</a></div></foreignObject></g><g data-depth="4" data-path="1.16.26.36.41" transform="translate(1021, 191.25)" class="markmap-node"><line x1="-1" x2="178" y1="20" y2="20" stroke="rgb(31, 119, 180)" stroke-width="1.5"></line><foreignObject class="markmap-foreign" x="8" y="0" width="160" height="20" style="opacity: 1;"><div xmlns="http://www.w3.org/1999/xhtml"><a href="https://learn.microsoft.com/en-us/training/modules/get-started-kusto-fabric/3a-define-real-time-hub/?ns-enrollment-type=learningpath&amp;ns-enrollment-id=learn.wwl.get-started-fabric" target="_blank">Real-Time Intelligence</a></div></foreignObject></g><g data-depth="4" data-path="1.16.26.36.40" transform="translate(1021, 166.25)" class="markmap-node"><line x1="-1" x2="162" y1="20" y2="20" stroke="rgb(23, 190, 207)" stroke-width="1.5"></line><foreignObject class="markmap-foreign" x="8" y="0" width="144" height="20" style="opacity: 1;"><div xmlns="http://www.w3.org/1999/xhtml"><a href="https://learn.microsoft.com/en-us/training/modules/use-dataflow-gen-2-fabric/3-explore-dataflows-gen-2" target="_blank">With Dataflow Gen2</a></div></foreignObject></g><g data-depth="4" data-path="1.16.26.36.39" transform="translate(1021, 141.25)" class="markmap-node"><line x1="-1" x2="144" y1="20" y2="20" stroke="rgb(188, 189, 34)" stroke-width="1.5"></line><foreignObject class="markmap-foreign" x="8" y="0" width="126" height="20" style="opacity: 1;"><div xmlns="http://www.w3.org/1999/xhtml"><a href="https://learn.microsoft.com/en-us/training/modules/get-started-data-warehouse/4-query-transform-data" target="_blank">Data warehouses</a></div></foreignObject></g><g data-depth="4" data-path="1.16.26.36.38" transform="translate(1021, 116.25)" class="markmap-node"><line x1="-1" x2="107" y1="20" y2="20" stroke="rgb(127, 127, 127)" stroke-width="1.5"></line><foreignObject class="markmap-foreign" x="8" y="0" width="89" height="20" style="opacity: 1;"><div xmlns="http://www.w3.org/1999/xhtml"><a href="https://learn.microsoft.com/en-us/training/modules/use-apache-spark-work-files-lakehouse/4-dataframe" target="_blank">Using Spark</a></div></foreignObject></g><g data-depth="4" data-path="1.16.26.36.37" transform="translate(1021, 91.25)" class="markmap-node"><line x1="-1" x2="129" y1="20" y2="20" stroke="rgb(227, 119, 194)" stroke-width="1.5"></line><foreignObject class="markmap-foreign" x="8" y="0" width="111" height="20" style="opacity: 1;"><div xmlns="http://www.w3.org/1999/xhtml"><a href="https://learn.microsoft.com/en-us/training/modules/get-started-lakehouses/4-explore-data-lakehouse" target="_blank">In a Lakehouse</a></div></foreignObject></g><g data-depth="4" data-path="1.16.17.18.21" transform="translate(1046, -328.75)" class="markmap-node"><line x1="-1" x2="87" y1="20" y2="20" stroke="rgb(31, 119, 180)" stroke-width="1.5"></line><foreignObject class="markmap-foreign" x="8" y="0" width="69" height="20" style="opacity: 1;"><div xmlns="http://www.w3.org/1999/xhtml"><a href="https://learn.microsoft.com/en-us/fabric/onelake/onelake-shortcuts" target="_blank">Shortcuts</a></div></foreignObject></g><g data-depth="4" data-path="1.16.17.18.20" transform="translate(1046, -353.75)" class="markmap-node"><line x1="-1" x2="115" y1="20" y2="20" stroke="rgb(23, 190, 207)" stroke-width="1.5"></line><foreignObject class="markmap-foreign" x="8" y="0" width="97" height="20" style="opacity: 1;"><div xmlns="http://www.w3.org/1999/xhtml"><a href="https://learn.microsoft.com/en-us/fabric/data-warehouse/ingest-data-copy" target="_blank">T-SQL COPY</a></div></foreignObject></g><g data-depth="4" data-path="1.16.17.18.19" transform="translate(1046, -378.75)" class="markmap-node"><line x1="-1" x2="111" y1="20" y2="20" stroke="rgb(188, 189, 34)" stroke-width="1.5"></line><foreignObject class="markmap-foreign" x="8" y="0" width="93" height="20" style="opacity: 1;"><div xmlns="http://www.w3.org/1999/xhtml"><a href="https://learn.microsoft.com/en-us/fabric/data-factory/connector-overview" target="_blank">Data Factory</a></div></foreignObject></g><g data-depth="3" data-path="1.48.57.61" transform="translate(1214, 766.25)" class="markmap-node"><line x1="-1" x2="383" y1="20" y2="20" stroke="rgb(31, 119, 180)" stroke-width="1.5"></line><foreignObject class="markmap-foreign" x="8" y="0" width="365" height="20" style="opacity: 1;"><div xmlns="http://www.w3.org/1999/xhtml"><a href="https://learn.microsoft.com/en-us/power-bi/connect-data/incremental-refresh-overview" target="_blank">Implement incremental refresh for semantic models</a></div></foreignObject></g><g data-depth="3" data-path="1.48.57.60" transform="translate(1214, 721.25)" class="markmap-node"><line x1="-1" x2="419" y1="40" y2="40" stroke="rgb(23, 190, 207)" stroke-width="1.5"></line><foreignObject class="markmap-foreign" x="8" y="0" width="401" height="40" style="opacity: 1;"><div xmlns="http://www.w3.org/1999/xhtml"><a href="https://learn.microsoft.com/en-us/fabric/get-started/direct-lake-overview#automatic-updates" target="_blank">Configure Direct Lake, including default fallback and refresh behavior</a></div></foreignObject></g><g data-depth="3" data-path="1.48.57.59" transform="translate(1214, 696.25)" class="markmap-node"><line x1="-1" x2="209" y1="20" y2="20" stroke="rgb(188, 189, 34)" stroke-width="1.5"></line><foreignObject class="markmap-foreign" x="8" y="0" width="191" height="20" style="opacity: 1;"><div xmlns="http://www.w3.org/1999/xhtml"><a href="https://learn.microsoft.com/en-us/training/modules/use-tools-optimize-power-bi-performance/" target="_blank">Improve DAX performance</a></div></foreignObject></g><g data-depth="3" data-path="1.48.57.58" transform="translate(1214, 651.25)" class="markmap-node"><line x1="-1" x2="419" y1="40" y2="40" stroke="rgb(127, 127, 127)" stroke-width="1.5"></line><foreignObject class="markmap-foreign" x="8" y="0" width="401" height="40" style="opacity: 1;"><div xmlns="http://www.w3.org/1999/xhtml"><a href="https://learn.microsoft.com/en-us/power-bi/guidance/power-bi-optimization" target="_blank">Implement performance improvements in queries and report visuals</a></div></foreignObject></g><g data-depth="3" data-path="1.48.49.56" transform="translate(1152, 621.25)" class="markmap-node"><line x1="-1" x2="272" y1="20" y2="20" stroke="rgb(140, 86, 75)" stroke-width="1.5"></line><foreignObject class="markmap-foreign" x="8" y="0" width="254" height="20" style="opacity: 1;"><div xmlns="http://www.w3.org/1999/xhtml"><a href="https://learn.microsoft.com/en-us/power-bi/guidance/composite-model-guidance#composite-model-use-cases" target="_blank">Design and build composite models</a></div></foreignObject></g><g data-depth="3" data-path="1.48.49.55" transform="translate(1152, 576.25)" class="markmap-node"><line x1="-1" x2="419" y1="40" y2="40" stroke="rgb(148, 103, 189)" stroke-width="1.5"></line><foreignObject class="markmap-foreign" x="8" y="0" width="401" height="40" style="opacity: 1;"><div xmlns="http://www.w3.org/1999/xhtml"><a href="https://learn.microsoft.com/en-us/fabric/get-started/create-workspaces#default-storage-format" target="_blank">Identify use cases for and configure large semantic model storage format</a></div></foreignObject></g><g data-depth="3" data-path="1.48.49.54" transform="translate(1152, 531.25)" class="markmap-node"><line x1="-1" x2="419" y1="40" y2="40" stroke="rgb(214, 39, 40)" stroke-width="1.5"></line><foreignObject class="markmap-foreign" x="8" y="0" width="401" height="40" style="opacity: 1;"><div xmlns="http://www.w3.org/1999/xhtml"><a href="https://learn.microsoft.com/en-us/power-bi/transform-model/calculation-groups" target="_blank">Implement calculation groups, dynamic format strings, and field parameters</a></div></foreignObject></g><g data-depth="3" data-path="1.48.49.53" transform="translate(1152, 466.25)" class="markmap-node"><line x1="-1" x2="419" y1="60" y2="60" stroke="rgb(44, 160, 44)" stroke-width="1.5"></line><foreignObject class="markmap-foreign" x="8" y="0" width="401" height="60" style="opacity: 1;"><div xmlns="http://www.w3.org/1999/xhtml"><a href="https://learn.microsoft.com/en-us/dax/best-practices/dax-variables" target="_blank">Write calculations that use DAX variables and functions, such as iterators, table filtering, windowing, and information functions</a></div></foreignObject></g><g data-depth="3" data-path="1.48.49.52" transform="translate(1152, 421.25)" class="markmap-node"><line x1="-1" x2="419" y1="40" y2="40" stroke="rgb(255, 127, 14)" stroke-width="1.5"></line><foreignObject class="markmap-foreign" x="8" y="0" width="401" height="40" style="opacity: 1;"><div xmlns="http://www.w3.org/1999/xhtml"><a href="https://learn.microsoft.com/en-us/power-bi/guidance/relationships-many-to-many" target="_blank">Implement relationships, such as bridge tables and many-to-many relationships</a></div></foreignObject></g><g data-depth="3" data-path="1.48.49.51" transform="translate(1152, 396.25)" class="markmap-node"><line x1="-1" x2="352" y1="20" y2="20" stroke="rgb(31, 119, 180)" stroke-width="1.5"></line><foreignObject class="markmap-foreign" x="8" y="0" width="334" height="20" style="opacity: 1;"><div xmlns="http://www.w3.org/1999/xhtml"><a href="https://learn.microsoft.com/en-us/power-bi/guidance/star-schema" target="_blank">Implement a star schema for a semantic model</a></div></foreignObject></g><g data-depth="3" data-path="1.48.49.50" transform="translate(1152, 371.25)" class="markmap-node"><line x1="-1" x2="190" y1="20" y2="20" stroke="rgb(23, 190, 207)" stroke-width="1.5"></line><foreignObject class="markmap-foreign" x="8" y="0" width="172" height="20" style="opacity: 1;"><div xmlns="http://www.w3.org/1999/xhtml"><a href="https://learn.microsoft.com/en-us/fabric/get-started/direct-lake-overview#comparison-to-other-storage-modes" target="_blank">Choose a storage mode</a></div></foreignObject></g><g data-depth="3" data-path="1.16.44.47" transform="translate(878, 341.25)" class="markmap-node"><line x1="-1" x2="350" y1="20" y2="20" stroke="rgb(227, 119, 194)" stroke-width="1.5"></line><foreignObject class="markmap-foreign" x="8" y="0" width="332" height="20" style="opacity: 1;"><div xmlns="http://www.w3.org/1999/xhtml"><a href="https://learn.microsoft.com/en-us/fabric/real-time-intelligence/kusto-query-set?tabs=kql-database#write-a-query" target="_blank">Select, filter, and aggregate data by using KQL</a></div></foreignObject></g><g data-depth="3" data-path="1.16.44.46" transform="translate(878, 316.25)" class="markmap-node"><line x1="-1" x2="350" y1="20" y2="20" stroke="rgb(140, 86, 75)" stroke-width="1.5"></line><foreignObject class="markmap-foreign" x="8" y="0" width="332" height="20" style="opacity: 1;"><div xmlns="http://www.w3.org/1999/xhtml"><a href="https://learn.microsoft.com/en-us/fabric/data-warehouse/sql-query-editor" target="_blank">Select, filter, and aggregate data by using SQL</a></div></foreignObject></g><g data-depth="3" data-path="1.16.44.45" transform="translate(878, 271.25)" class="markmap-node"><line x1="-1" x2="419" y1="40" y2="40" stroke="rgb(148, 103, 189)" stroke-width="1.5"></line><foreignObject class="markmap-foreign" x="8" y="0" width="401" height="40" style="opacity: 1;"><div xmlns="http://www.w3.org/1999/xhtml"><a href="https://learn.microsoft.com/en-us/fabric/data-warehouse/visual-query-editor" target="_blank">Select, filter, and aggregate data by using the Visual Query Editor</a></div></foreignObject></g><g data-depth="3" data-path="1.16.26.36" transform="translate(816, 166.25)" class="markmap-node"><line x1="-1" x2="127" y1="20" y2="20" stroke="rgb(140, 86, 75)" stroke-width="1.5"></line><circle stroke-width="1.5" cx="125" cy="20" r="6" stroke="rgb(140, 86, 75)" fill="rgb(255, 255, 255)"></circle><foreignObject class="markmap-foreign" x="8" y="0" width="109" height="20" style="opacity: 1;"><div xmlns="http://www.w3.org/1999/xhtml">Transform data</div></foreignObject></g><g data-depth="3" data-path="1.16.26.35" transform="translate(816, 113.75)" class="markmap-node"><line x1="-1" x2="91" y1="20" y2="20" stroke="rgb(148, 103, 189)" stroke-width="1.5"></line><foreignObject class="markmap-foreign" x="8" y="0" width="73" height="20" style="opacity: 1;"><div xmlns="http://www.w3.org/1999/xhtml">Filter data</div></foreignObject></g><g data-depth="3" data-path="1.16.26.34" transform="translate(816, 61.25)" class="markmap-node"><line x1="-1" x2="210" y1="20" y2="20" stroke="rgb(214, 39, 40)" stroke-width="1.5"></line><foreignObject class="markmap-foreign" x="8" y="0" width="192" height="20" style="opacity: 1;"><div xmlns="http://www.w3.org/1999/xhtml">Convert column data types</div></foreignObject></g><g data-depth="3" data-path="1.16.26.33" transform="translate(816, 16.25)" class="markmap-node"><line x1="-1" x2="419" y1="40" y2="40" stroke="rgb(44, 160, 44)" stroke-width="1.5"></line><foreignObject class="markmap-foreign" x="8" y="0" width="401" height="40" style="opacity: 1;"><div xmlns="http://www.w3.org/1999/xhtml">Identify and resolve duplicate data, missing data, or null values</div></foreignObject></g><g data-depth="3" data-path="1.16.26.32" transform="translate(816, -8.75)" class="markmap-node"><line x1="-1" x2="148" y1="20" y2="20" stroke="rgb(255, 127, 14)" stroke-width="1.5"></line><foreignObject class="markmap-foreign" x="8" y="0" width="130" height="20" style="opacity: 1;"><div xmlns="http://www.w3.org/1999/xhtml">Merge or join data</div></foreignObject></g><g data-depth="3" data-path="1.16.26.31" transform="translate(816, -33.75)" class="markmap-node"><line x1="-1" x2="129" y1="20" y2="20" stroke="rgb(31, 119, 180)" stroke-width="1.5"></line><foreignObject class="markmap-foreign" x="8" y="0" width="111" height="20" style="opacity: 1;"><div xmlns="http://www.w3.org/1999/xhtml">Aggregate data</div></foreignObject></g><g data-depth="3" data-path="1.16.26.30" transform="translate(816, -58.75)" class="markmap-node"><line x1="-1" x2="145" y1="20" y2="20" stroke="rgb(23, 190, 207)" stroke-width="1.5"></line><foreignObject class="markmap-foreign" x="8" y="0" width="127" height="20" style="opacity: 1;"><div xmlns="http://www.w3.org/1999/xhtml"><a href="https://learn.microsoft.com/en-us/power-bi/guidance/star-schema" target="_blank">Denormalize data</a></div></foreignObject></g><g data-depth="3" data-path="1.16.26.29" transform="translate(816, -83.75)" class="markmap-node"><line x1="-1" x2="414" y1="20" y2="20" stroke="rgb(188, 189, 34)" stroke-width="1.5"></line><foreignObject class="markmap-foreign" x="8" y="0" width="396" height="20" style="opacity: 1;"><div xmlns="http://www.w3.org/1999/xhtml"><a href="https://learn.microsoft.com/en-us/fabric/data-warehouse/dimensional-modeling-overview" target="_blank">Implement a star schema for a lakehouse or warehouse</a></div></foreignObject></g><g data-depth="3" data-path="1.16.26.28" transform="translate(816, -108.75)" class="markmap-node"><line x1="-1" x2="338" y1="20" y2="20" stroke="rgb(127, 127, 127)" stroke-width="1.5"></line><foreignObject class="markmap-foreign" x="8" y="0" width="320" height="20" style="opacity: 1;"><div xmlns="http://www.w3.org/1999/xhtml"><a href="https://learn.microsoft.com/en-us/fabric/data-warehouse/tutorial-create-tables" target="_blank">Enrich data by adding new columns or tables</a></div></foreignObject></g><g data-depth="3" data-path="1.16.26.27" transform="translate(816, -133.75)" class="markmap-node"><line x1="-1" x2="354" y1="20" y2="20" stroke="rgb(227, 119, 194)" stroke-width="1.5"></line><foreignObject class="markmap-foreign" x="8" y="0" width="336" height="20" style="opacity: 1;"><div xmlns="http://www.w3.org/1999/xhtml"><a href="https://learn.microsoft.com/en-us/sql/relational-databases/stored-procedures/create-a-stored-procedure?view=sql-server-ver16" target="_blank">Create views, functions, and stored procedures</a></div></foreignObject></g><g data-depth="3" data-path="1.16.17.25" transform="translate(770, -183.75)" class="markmap-node"><line x1="-1" x2="419" y1="40" y2="40" stroke="rgb(148, 103, 189)" stroke-width="1.5"></line><foreignObject class="markmap-foreign" x="8" y="0" width="401" height="40" style="opacity: 1;"><div xmlns="http://www.w3.org/1999/xhtml"><a href="https://learn.microsoft.com/en-us/power-bi/enterprise/onelake-integration-overview" target="_blank">Implement OneLake integration for eventhouse and semantic models</a></div></foreignObject></g><g data-depth="3" data-path="1.16.17.24" transform="translate(770, -228.75)" class="markmap-node"><line x1="-1" x2="419" y1="40" y2="40" stroke="rgb(214, 39, 40)" stroke-width="1.5"></line><foreignObject class="markmap-foreign" x="8" y="0" width="401" height="40" style="opacity: 1;"><div xmlns="http://www.w3.org/1999/xhtml"><a href="https://learn.microsoft.com/en-us/fabric/get-started/decision-guide-data-store?toc=%2Ffabric%2Fdata-warehouse%2Ftoc.json&amp;bc=%2Ffabric%2Fdata-warehouse%2Ftoc.json" target="_blank">Choose between a lakehouse, warehouse, or eventhouse</a></div></foreignObject></g><g data-depth="3" data-path="1.16.17.23" transform="translate(770, -253.75)" class="markmap-node"><line x1="-1" x2="251" y1="20" y2="20" stroke="rgb(44, 160, 44)" stroke-width="1.5"></line><foreignObject class="markmap-foreign" x="8" y="0" width="233" height="20" style="opacity: 1;"><div xmlns="http://www.w3.org/1999/xhtml"><a href="https://learn.microsoft.com/en-us/fabric/get-started/decision-guide-pipeline-dataflow-spark" target="_blank">Ingest or access data as needed</a></div></foreignObject></g><g data-depth="3" data-path="1.16.17.22" transform="translate(770, -298.75)" class="markmap-node"><line x1="-1" x2="419" y1="40" y2="40" stroke="rgb(255, 127, 14)" stroke-width="1.5"></line><foreignObject class="markmap-foreign" x="8" y="0" width="401" height="40" style="opacity: 1;"><div xmlns="http://www.w3.org/1999/xhtml"><a href="https://learn.microsoft.com/en-us/fabric/real-time-hub/explore-fabric-onelake-events" target="_blank">Discover data by using OneLake data hub and real-time hub</a></div></foreignObject></g><g data-depth="3" data-path="1.16.17.18" transform="translate(770, -353.75)" class="markmap-node"><line x1="-1" x2="198" y1="20" y2="20" stroke="rgb(127, 127, 127)" stroke-width="1.5"></line><circle stroke-width="1.5" cx="196" cy="20" r="6" stroke="rgb(127, 127, 127)" fill="rgb(255, 255, 255)"></circle><foreignObject class="markmap-foreign" x="8" y="0" width="180" height="20" style="opacity: 1;"><div xmlns="http://www.w3.org/1999/xhtml">Create a data connection</div></foreignObject></g><g data-depth="3" data-path="1.2.9.15" transform="translate(1163, -448.75)" class="markmap-node"><line x1="-1" x2="419" y1="60" y2="60" stroke="rgb(148, 103, 189)" stroke-width="1.5"></line><foreignObject class="markmap-foreign" x="8" y="0" width="401" height="60" style="opacity: 1;"><div xmlns="http://www.w3.org/1999/xhtml"><a href="https://learn.microsoft.com/en-us/training/modules/create-manage-power-bi-assets/" target="_blank">Create and update reusable assets, including Power BI template (.pbit) files, Power BI data source (.pbids) files, and shared semantic models</a></div></foreignObject></g><g data-depth="3" data-path="1.2.9.14" transform="translate(1163, -493.75)" class="markmap-node"><line x1="-1" x2="419" y1="40" y2="40" stroke="rgb(214, 39, 40)" stroke-width="1.5"></line><foreignObject class="markmap-foreign" x="8" y="0" width="401" height="40" style="opacity: 1;"><div xmlns="http://www.w3.org/1999/xhtml"><a href="https://learn.microsoft.com/en-us/power-bi/enterprise/service-premium-connect-tools" target="_blank">Deploy and manage semantic models by using the XMLA endpoint</a></div></foreignObject></g><g data-depth="3" data-path="1.2.9.13" transform="translate(1163, -558.75)" class="markmap-node"><line x1="-1" x2="419" y1="60" y2="60" stroke="rgb(44, 160, 44)" stroke-width="1.5"></line><foreignObject class="markmap-foreign" x="8" y="0" width="401" height="60" style="opacity: 1;"><div xmlns="http://www.w3.org/1999/xhtml"><a href="https://learn.microsoft.com/en-us/fabric/governance/impact-analysis" target="_blank">Perform impact analysis of downstream dependencies from lakehouses, data warehouses, dataflows, and semantic models</a></div></foreignObject></g><g data-depth="3" data-path="1.2.9.12" transform="translate(1163, -583.75)" class="markmap-node"><line x1="-1" x2="324" y1="20" y2="20" stroke="rgb(255, 127, 14)" stroke-width="1.5"></line><foreignObject class="markmap-foreign" x="8" y="0" width="306" height="20" style="opacity: 1;"><div xmlns="http://www.w3.org/1999/xhtml"><a href="https://learn.microsoft.com/en-us/fabric/cicd/deployment-pipelines/get-started-with-deployment-pipelines?tabs=from-fabric%2Cnew-ui" target="_blank">Create and configure deployment pipelines</a></div></foreignObject></g><g data-depth="3" data-path="1.2.9.11" transform="translate(1163, -608.75)" class="markmap-node"><line x1="-1" x2="409" y1="20" y2="20" stroke="rgb(31, 119, 180)" stroke-width="1.5"></line><foreignObject class="markmap-foreign" x="8" y="0" width="391" height="20" style="opacity: 1;"><div xmlns="http://www.w3.org/1999/xhtml"><a href="https://learn.microsoft.com/en-us/power-bi/developer/projects/projects-overview" target="_blank">Create and manage a Power BI Desktop project (.pbip)</a></div></foreignObject></g><g data-depth="3" data-path="1.2.9.10" transform="translate(1163, -633.75)" class="markmap-node"><line x1="-1" x2="315" y1="20" y2="20" stroke="rgb(23, 190, 207)" stroke-width="1.5"></line><foreignObject class="markmap-foreign" x="8" y="0" width="297" height="20" style="opacity: 1;"><div xmlns="http://www.w3.org/1999/xhtml"><a href="https://learn.microsoft.com/en-us/fabric/cicd/git-integration/intro-to-git-integration?tabs=azure-devops" target="_blank">Configure version control for a workspace</a></div></foreignObject></g><g data-depth="3" data-path="1.2.3.8" transform="translate(1105, -663.75)" class="markmap-node"><line x1="-1" x2="122" y1="20" y2="20" stroke="rgb(127, 127, 127)" stroke-width="1.5"></line><foreignObject class="markmap-foreign" x="8" y="0" width="104" height="20" style="opacity: 1;"><div xmlns="http://www.w3.org/1999/xhtml"><a href="https://learn.microsoft.com/en-us/fabric/get-started/endorsement-promote-certify" target="_blank">Endorse items</a></div></foreignObject></g><g data-depth="3" data-path="1.2.3.7" transform="translate(1105, -688.75)" class="markmap-node"><line x1="-1" x2="240" y1="20" y2="20" stroke="rgb(227, 119, 194)" stroke-width="1.5"></line><foreignObject class="markmap-foreign" x="8" y="0" width="222" height="20" style="opacity: 1;"><div xmlns="http://www.w3.org/1999/xhtml"><a href="https://learn.microsoft.com/en-us/fabric/get-started/apply-sensitivity-labels" target="_blank">Apply sensitivity labels to items</a></div></foreignObject></g><g data-depth="3" data-path="1.2.3.6" transform="translate(1105, -733.75)" class="markmap-node"><line x1="-1" x2="419" y1="40" y2="40" stroke="rgb(140, 86, 75)" stroke-width="1.5"></line><foreignObject class="markmap-foreign" x="8" y="0" width="401" height="40" style="opacity: 1;"><div xmlns="http://www.w3.org/1999/xhtml"><a href="https://learn.microsoft.com/en-us/fabric/data-warehouse/share-warehouse-manage-permissions" target="_blank">Implement row-level, column-level, object-level, and file-level access control</a></div></foreignObject></g><g data-depth="3" data-path="1.2.3.5" transform="translate(1105, -758.75)" class="markmap-node"><line x1="-1" x2="282" y1="20" y2="20" stroke="rgb(148, 103, 189)" stroke-width="1.5"></line><foreignObject class="markmap-foreign" x="8" y="0" width="264" height="20" style="opacity: 1;"><div xmlns="http://www.w3.org/1999/xhtml"><a href="https://learn.microsoft.com/en-us/fabric/security/permission-model" target="_blank">Implement item-level access controls</a></div></foreignObject></g><g data-depth="3" data-path="1.2.3.4" transform="translate(1105, -783.75)" class="markmap-node"><line x1="-1" x2="328" y1="20" y2="20" stroke="rgb(214, 39, 40)" stroke-width="1.5"></line><foreignObject class="markmap-foreign" x="8" y="0" width="310" height="20" style="opacity: 1;"><div xmlns="http://www.w3.org/1999/xhtml"><a href="https://learn.microsoft.com/en-us/fabric/security/permission-model" target="_blank">Implement workspace-level access controls</a></div></foreignObject></g><g data-depth="2" data-path="1.48.57" transform="translate(811, 708.75)" class="markmap-node"><line x1="-1" x2="325" y1="20" y2="20" stroke="rgb(227, 119, 194)" stroke-width="1.5"></line><circle stroke-width="1.5" cx="323" cy="20" r="6" stroke="rgb(227, 119, 194)" fill="rgb(255, 255, 255)"></circle><foreignObject class="markmap-foreign" x="8" y="0" width="307" height="20" style="opacity: 1;"><div xmlns="http://www.w3.org/1999/xhtml">Optimize enterprise-scale semantic models</div></foreignObject></g><g data-depth="2" data-path="1.48.49" transform="translate(811, 496.25)" class="markmap-node"><line x1="-1" x2="263" y1="20" y2="20" stroke="rgb(188, 189, 34)" stroke-width="1.5"></line><circle stroke-width="1.5" cx="261" cy="20" r="6" stroke="rgb(188, 189, 34)" fill="rgb(255, 255, 255)"></circle><foreignObject class="markmap-foreign" x="8" y="0" width="245" height="20" style="opacity: 1;"><div xmlns="http://www.w3.org/1999/xhtml">Design and build semantic models</div></foreignObject></g><g data-depth="2" data-path="1.16.44" transform="translate(611, 306.25)" class="markmap-node"><line x1="-1" x2="189" y1="20" y2="20" stroke="rgb(214, 39, 40)" stroke-width="1.5"></line><circle stroke-width="1.5" cx="187" cy="20" r="6" stroke="rgb(214, 39, 40)" fill="rgb(255, 255, 255)"></circle><foreignObject class="markmap-foreign" x="8" y="0" width="171" height="20" style="opacity: 1;"><div xmlns="http://www.w3.org/1999/xhtml">Query and analyze data</div></foreignObject></g><g data-depth="2" data-path="1.16.26" transform="translate(611, 16.25)" class="markmap-node"><line x1="-1" x2="127" y1="20" y2="20" stroke="rgb(140, 86, 75)" stroke-width="1.5"></line><circle stroke-width="1.5" cx="125" cy="20" r="6" stroke="rgb(140, 86, 75)" fill="rgb(255, 255, 255)"></circle><foreignObject class="markmap-foreign" x="8" y="0" width="109" height="20" style="opacity: 1;"><div xmlns="http://www.w3.org/1999/xhtml">Transform data</div></foreignObject></g><g data-depth="2" data-path="1.16.17" transform="translate(611, -258.75)" class="markmap-node"><line x1="-1" x2="81" y1="20" y2="20" stroke="rgb(227, 119, 194)" stroke-width="1.5"></line><circle stroke-width="1.5" cx="79" cy="20" r="6" stroke="rgb(227, 119, 194)" fill="rgb(255, 255, 255)"></circle><foreignObject class="markmap-foreign" x="8" y="0" width="63" height="20" style="opacity: 1;"><div xmlns="http://www.w3.org/1999/xhtml">Get data</div></foreignObject></g><g data-depth="2" data-path="1.2.9" transform="translate(754, -521.25)" class="markmap-node"><line x1="-1" x2="331" y1="20" y2="20" stroke="rgb(188, 189, 34)" stroke-width="1.5"></line><circle stroke-width="1.5" cx="329" cy="20" r="6" stroke="rgb(188, 189, 34)" fill="rgb(255, 255, 255)"></circle><foreignObject class="markmap-foreign" x="8" y="0" width="313" height="20" style="opacity: 1;"><div xmlns="http://www.w3.org/1999/xhtml">Maintain the analytics development lifecycle</div></foreignObject></g><g data-depth="2" data-path="1.2.3" transform="translate(754, -723.75)" class="markmap-node"><line x1="-1" x2="273" y1="20" y2="20" stroke="rgb(44, 160, 44)" stroke-width="1.5"></line><circle stroke-width="1.5" cx="271" cy="20" r="6" stroke="rgb(44, 160, 44)" fill="rgb(255, 255, 255)"></circle><foreignObject class="markmap-foreign" x="8" y="0" width="255" height="20" style="opacity: 1;"><div xmlns="http://www.w3.org/1999/xhtml">Implement security and governance</div></foreignObject></g><g data-depth="1" data-path="1.48" transform="translate(347, 602.5)" class="markmap-node"><line x1="-1" x2="386" y1="20" y2="20" stroke="rgb(127, 127, 127)" stroke-width="2"></line><circle stroke-width="1.5" cx="384" cy="20" r="6" stroke="rgb(127, 127, 127)" fill="rgb(255, 255, 255)"></circle><foreignObject class="markmap-foreign" x="8" y="0" width="368" height="20" style="opacity: 1;"><div xmlns="http://www.w3.org/1999/xhtml">Implement and manage semantic models (25–30%)</div></foreignObject></g><g data-depth="1" data-path="1.16" transform="translate(347, 23.75)" class="markmap-node"><line x1="-1" x2="186" y1="20" y2="20" stroke="rgb(140, 86, 75)" stroke-width="2"></line><circle stroke-width="1.5" cx="184" cy="20" r="6" stroke="rgb(140, 86, 75)" fill="rgb(255, 255, 255)"></circle><foreignObject class="markmap-foreign" x="8" y="0" width="168" height="20" style="opacity: 1;"><div xmlns="http://www.w3.org/1999/xhtml">Prepare data (45–50%)</div></foreignObject></g><g data-depth="1" data-path="1.2" transform="translate(347, -622.5)" class="markmap-node"><line x1="-1" x2="329" y1="20" y2="20" stroke="rgb(255, 127, 14)" stroke-width="2"></line><circle stroke-width="1.5" cx="327" cy="20" r="6" stroke="rgb(255, 127, 14)" fill="rgb(255, 255, 255)"></circle><foreignObject class="markmap-foreign" x="8" y="0" width="311" height="20" style="opacity: 1;"><div xmlns="http://www.w3.org/1999/xhtml">Maintain a data analytics solution (25–30%)</div></foreignObject></g><g data-depth="0" data-path="1" transform="translate(80,-10)" class="markmap-node"><line x1="-1" x2="189" y1="20" y2="20" stroke="rgb(31, 119, 180)" stroke-width="4"></line><circle stroke-width="1.5" cx="187" cy="20" r="6" stroke="rgb(31, 119, 180)" fill="rgb(255, 255, 255)"></circle><foreignObject class="markmap-foreign" x="8" y="0" width="171" height="20" style="opacity: 1;"><div xmlns="http://www.w3.org/1999/xhtml">DP-600 Exam Mindmap</div></foreignObject></g></g>
  </svg>